{
  "accessors": [
    {
      "bufferView": 1,
      "componentType": 5126,
      "count": 24578,
      "max": [
        1.1243599653244019,
        1.3755249977111816,
        1.6986520290374756
      ],
      "min": [
        -1.1243900060653687,
        -1.6934139728546143,
        -2.338392972946167
      ],
      "type": "VEC3"
    },
    {
      "bufferView": 1,
      "byteOffset": 294936,
      "componentType": 5126,
      "count": 24578,
      "max": [
        0.99998915195465088,
        0.99999523162841797,
        0.99997091293334961
      ],
      "min": [
        -0.9999852180480957,
        -0.99999964237213135,
        -0.99995017051696777
      ],
      "type": "VEC3"
    },
    {
      "bufferView": 0,
      "componentType": 5125,
      "count": 147456,
      "max": [
        24577
      ],
      "min": [
        0
      ],
      "type": "SCALAR"
    }
  ],
  "asset": {
    "extras": {
      "author": "Friedrich.Nictzche (https://sketchfab.com/Friedrich.Nictzche)",
      "license": "CC-BY-4.0 (http://creativecommons.org/licenses/by/4.0/)",
      "source": "https://sketchfab.com/3d-models/cap-furica-f1c9ea6c9e1c40e19e2024f867fab08a",
      "title": "Cap-furica"
    },
    "generator": "Sketchfab-8.20.0",
    "version": "2.0"
  },
  "bufferViews": [
    {
      "buffer": 0,
      "byteLength": 589824,
      "byteOffset": 0,
      "name": "floatBufferViews",
      "target": 34963
    },
    {
      "buffer": 0,
      "byteLength": 589872,
      "byteOffset": 589824,
      "byteStride": 12,
      "name": "floatBufferViews",
      "target": 34962
    }
  ],
  "buffers": [
    {
      "byteLength": 1179696,
      "uri": "scene.bin"
    }
  ],
  "materials": [
    {
      "doubleSided": true,
      "name": "Material",
      "pbrMetallicRoughness": {
        "baseColorFactor": [
          1,
          1,
          1,
          1
        ],
        "metallicFactor": 0,
        "roughnessFactor": 0.59999999999999998
      }
    }
  ],
  "meshes": [
    {
      "primitives": [
        {
          "attributes": {
            "NORMAL": 1,
            "POSITION": 0
          },
          "indices": 2,
          "material": 0,
          "mode": 4
        }
      ]
    }
  ],
  "nodes": [
    {
      "children": [
        1
      ],
      "name": "RootNode (gltf orientation matrix)",
      "rotation": [
        -0.70710678118654746,
        -0,
        -0,
        0.70710678118654757
      ]
    },
    {
      "children": [
        2
      ],
      "name": "RootNode (model correction matrix)"
    },
    {
      "children": [
        3
      ],
      "name": "cap-furica.obj.cleaner.materialmerger.gles"
    },
    {
      "mesh": 0,
      "name": ""
    }
  ],
  "scene": 0,
  "scenes": [
    {
      "name": "OSG_Scene",
      "nodes": [
        0
      ]
    }
  ]
}

